<?xml version="1.0" encoding="UTF-8" standalone="no"?>
<svg
   enable-background="new 0 0 56.693 56.693"
   height="35"
   id="Layer_1"
   version="1.1"
   viewBox="0 0 35 35"
   width="35"
   xml:space="preserve"
   sodipodi:docname="linkedin.svg"
   inkscape:version="1.3.2 (091e20ef0f, 2023-11-25, custom)"
   xmlns:inkscape="http://www.inkscape.org/namespaces/inkscape"
   xmlns:sodipodi="http://sodipodi.sourceforge.net/DTD/sodipodi-0.dtd"
   xmlns="http://www.w3.org/2000/svg"
   xmlns:svg="http://www.w3.org/2000/svg"><defs
     id="defs2" /><sodipodi:namedview
     id="namedview2"
     pagecolor="#505050"
     bordercolor="#ffffff"
     borderopacity="1"
     inkscape:showpageshadow="0"
     inkscape:pageopacity="0"
     inkscape:pagecheckerboard="1"
     inkscape:deskcolor="#505050"
     inkscape:zoom="8.8899863"
     inkscape:cx="28.177771"
     inkscape:cy="28.3465"
     inkscape:window-width="1326"
     inkscape:window-height="710"
     inkscape:window-x="12"
     inkscape:window-y="30"
     inkscape:window-maximized="1"
     inkscape:current-layer="Layer_1" /><g
     id="g2"
     style="fill:#ffffff;fill-opacity:1"
     transform="matrix(0.64744562,0,0,0.64337127,-0.76217488,-1.5026138)"><path
       d="m 30.071,27.101 v -0.077 c -0.016,0.026 -0.033,0.052 -0.05,0.077 z"
       id="path1"
       style="fill:#ffffff;fill-opacity:1" /><path
       d="M 49.265,4.667 H 7.145 c -2.016,0 -3.651,1.596 -3.651,3.563 v 42.613 c 0,1.966 1.635,3.562 3.651,3.562 h 42.12 c 2.019,0 3.654,-1.597 3.654,-3.562 V 8.23 c 0,-1.968 -1.636,-3.563 -3.654,-3.563 z M 18.475,46.304 H 11.01 V 23.845 h 7.465 z M 14.743,20.777 h -0.05 c -2.504,0 -4.124,-1.725 -4.124,-3.88 0,-2.203 1.67,-3.88 4.223,-3.88 2.554,0 4.125,1.677 4.175,3.88 0,2.155 -1.622,3.88 -4.224,3.88 z M 45.394,46.304 H 37.929 V 34.286 c 0,-3.018 -1.08,-5.078 -3.781,-5.078 -2.062,0 -3.29,1.389 -3.831,2.731 -0.197,0.479 -0.245,1.149 -0.245,1.821 v 12.543 h -7.465 c 0,0 0.098,-20.354 0,-22.459 h 7.465 v 3.179 c 0.992,-1.53 2.766,-3.709 6.729,-3.709 4.911,0 8.594,3.211 8.594,10.11 v 12.88 z"
       id="path2"
       style="fill:#ffffff;fill-opacity:1" /></g></svg>
