<?xml version="1.0" encoding="UTF-8" standalone="no"?>
<!-- Created with Inkscape (http://www.inkscape.org/) -->

<svg
   width="1024"
   height="1024"
   viewBox="0 0 270.93333 270.93333"
   version="1.1"
   id="svg1"
   xml:space="preserve"
   xmlns="http://www.w3.org/2000/svg"
   xmlns:svg="http://www.w3.org/2000/svg"><defs
     id="defs1"><clipPath
       clipPathUnits="userSpaceOnUse"
       id="clipPath2470"><path
         d="m 2023.35,5344.42 c 0,-382.8 -310.34,-693.14 -693.15,-693.14 -382.817,0 -693.157,310.34 -693.157,693.14 0,382.83 310.34,693.17 693.157,693.17 382.81,0 693.15,-310.34 693.15,-693.17 z"
         id="path2468" /></clipPath><radialGradient
       fx="-0.41973001"
       fy="0.0063950298"
       cx="0"
       cy="0"
       r="1"
       gradientUnits="userSpaceOnUse"
       gradientTransform="matrix(1280.3,1483.24,1204.39,-1039.6,1319.31,5290.03)"
       spreadMethod="pad"
       id="radialGradient2478"><stop
         style="stop-opacity:1;stop-color:#e6e31b"
         offset="0"
         id="stop2472" /><stop
         style="stop-opacity:1;stop-color:#ed1577"
         offset="0.399775"
         id="stop2474" /><stop
         style="stop-opacity:1;stop-color:#3846a3"
         offset="1"
         id="stop2476" /></radialGradient><clipPath
       clipPathUnits="userSpaceOnUse"
       id="clipPath2508"><path
         d="m 3770.16,3611.16 c 0,382.82 -310.35,693.16 -693.15,693.16 -382.82,0 -693.16,-310.34 -693.16,-693.16 0,-382.81 310.34,-693.14 693.16,-693.14 1.98,0 3.94,0.13 5.93,0.13 v 483.57 h -166.9 V 3595 h 166.9 v 142.53 c 0,165.41 101.02,255.48 248.55,255.48 70.7,0 131.44,-5.28 149.15,-7.62 v -172.87 l -102.35,-0.04 c -80.24,0 -95.77,-38.12 -95.77,-94.08 V 3595 h 191.38 l -24.92,-193.28 h -166.46 v -452.73 c 282.47,87.59 487.64,350.91 487.64,662.17 z"
         id="path2506" /></clipPath><linearGradient
       x1="0"
       y1="0"
       x2="1"
       y2="0"
       gradientUnits="userSpaceOnUse"
       gradientTransform="matrix(-1053.33,-1440,-1440,1053.33,3613.82,4345.05)"
       spreadMethod="pad"
       id="linearGradient2514"><stop
         style="stop-opacity:1;stop-color:#211e23"
         offset="0"
         id="stop2510" /><stop
         style="stop-opacity:1;stop-color:#3d3a42"
         offset="1"
         id="stop2512" /></linearGradient><clipPath
       clipPathUnits="userSpaceOnUse"
       id="clipPath2526"><path
         d="m 2023.35,3611.16 c 0,-382.81 -310.34,-693.14 -693.15,-693.14 -382.817,0 -693.157,310.33 -693.157,693.14 0,382.82 310.34,693.16 693.157,693.16 382.81,0 693.15,-310.34 693.15,-693.16 z"
         id="path2524" /></clipPath><radialGradient
       fx="-0.41973001"
       fy="0.0063950298"
       cx="0"
       cy="0"
       r="1"
       gradientUnits="userSpaceOnUse"
       gradientTransform="matrix(1311.08,1456.1,1182.36,-1064.6,1319.31,3556.77)"
       spreadMethod="pad"
       id="radialGradient2532"><stop
         style="stop-opacity:1;stop-color:#3d3a42"
         offset="0"
         id="stop2528" /><stop
         style="stop-opacity:1;stop-color:#211e23"
         offset="1"
         id="stop2530" /></radialGradient><clipPath
       clipPathUnits="userSpaceOnUse"
       id="clipPath2548"><path
         d="m 7261.83,3603.91 c 0,-382.83 -310.35,-693.16 -693.16,-693.16 -382.81,0 -693.15,310.33 -693.15,693.16 0,382.82 310.34,693.16 693.15,693.16 382.81,0 693.16,-310.34 693.16,-693.16 z"
         id="path2546" /></clipPath><linearGradient
       x1="0"
       y1="0"
       x2="1"
       y2="0"
       gradientUnits="userSpaceOnUse"
       gradientTransform="matrix(-1040,-1320,-1320,1040,7076.46,4248.4)"
       spreadMethod="pad"
       id="linearGradient2554"><stop
         style="stop-opacity:1;stop-color:#211e23"
         offset="0"
         id="stop2550" /><stop
         style="stop-opacity:1;stop-color:#3d3a42"
         offset="1"
         id="stop2552" /></linearGradient><clipPath
       clipPathUnits="userSpaceOnUse"
       id="clipPath2570"><path
         d="m 4821.86,2921.94 c -120.99,0 -239.64,32.01 -344.75,92.78 l -269.3,-92.78 55.35,285.17 c -86.76,118.91 -132.5,258.79 -132.5,406.01 0,381.14 310.07,691.2 691.2,691.2 381.17,0 691.22,-310.06 691.22,-691.2 0,-381.11 -310.05,-691.18 -691.22,-691.18 z"
         id="path2568" /></clipPath><linearGradient
       x1="0"
       y1="0"
       x2="1"
       y2="0"
       gradientUnits="userSpaceOnUse"
       gradientTransform="matrix(-1130,-1460,-1460,1130,5321.35,4258.48)"
       spreadMethod="pad"
       id="linearGradient2576"><stop
         style="stop-opacity:1;stop-color:#211e23"
         offset="0"
         id="stop2572" /><stop
         style="stop-opacity:1;stop-color:#3d3a42"
         offset="1"
         id="stop2574" /></linearGradient><clipPath
       clipPathUnits="userSpaceOnUse"
       id="clipPath2590"><path
         d="m 3770.16,1877.89 c 0,382.83 -310.35,693.16 -693.15,693.16 -382.82,0 -693.16,-310.33 -693.16,-693.16 0,-382.81 310.34,-693.14 693.16,-693.14 1.98,0 3.94,0.13 5.93,0.13 v 483.57 h -166.9 v 193.29 h 166.9 v 142.52 c 0,165.41 101.02,255.48 248.55,255.48 70.7,0 131.44,-5.27 149.15,-7.61 v -172.87 l -102.35,-0.04 c -80.24,0 -95.77,-38.13 -95.77,-94.08 v -123.4 h 191.38 l -24.92,-193.29 h -166.46 v -452.72 c 282.47,87.58 487.64,350.91 487.64,662.16 z"
         id="path2588" /></clipPath><linearGradient
       x1="0"
       y1="0"
       x2="1"
       y2="0"
       gradientUnits="userSpaceOnUse"
       gradientTransform="matrix(-1100,-1550,-1550,1100,3485.73,2453.84)"
       spreadMethod="pad"
       id="linearGradient2596"><stop
         style="stop-opacity:1;stop-color:#f3f1f4"
         offset="0"
         id="stop2592" /><stop
         style="stop-opacity:1;stop-color:#ffffff"
         offset="1"
         id="stop2594" /></linearGradient><clipPath
       clipPathUnits="userSpaceOnUse"
       id="clipPath2606"><path
         d="m 3448.98,1668.45 24.92,193.29 h -191.38 v 123.4 c 0,55.95 15.53,94.08 95.77,94.08 l 102.35,0.04 v 172.87 c -17.71,2.34 -78.45,7.61 -149.15,7.61 -147.53,0 -248.55,-90.07 -248.55,-255.48 v -142.52 h -166.9 v -193.29 h 166.9 v -483.57 c 69.43,0.6 136.45,11.28 199.58,30.85 v 452.72 z"
         id="path2604" /></clipPath><linearGradient
       x1="0"
       y1="0"
       x2="1"
       y2="0"
       gradientUnits="userSpaceOnUse"
       gradientTransform="matrix(-560,-1030,-1030,560,3501.6,2278.7)"
       spreadMethod="pad"
       id="linearGradient2612"><stop
         style="stop-opacity:1;stop-color:#211e23"
         offset="0"
         id="stop2608" /><stop
         style="stop-opacity:1;stop-color:#3d3a42"
         offset="1"
         id="stop2610" /></linearGradient><clipPath
       clipPathUnits="userSpaceOnUse"
       id="clipPath2622"><path
         d="m 2023.35,1877.89 c 0,-382.81 -310.34,-693.14 -693.15,-693.14 -382.817,0 -693.157,310.33 -693.157,693.14 0,382.83 310.34,693.16 693.157,693.16 382.81,0 693.15,-310.33 693.15,-693.16 z"
         id="path2620" /></clipPath><radialGradient
       fx="-0.41973001"
       fy="0.0063950298"
       cx="0"
       cy="0"
       r="1"
       gradientUnits="userSpaceOnUse"
       gradientTransform="matrix(1280.3,1483.24,1204.39,-1039.6,1319.31,1823.5)"
       spreadMethod="pad"
       id="radialGradient2628"><stop
         style="stop-opacity:1;stop-color:#ffffff"
         offset="0"
         id="stop2624" /><stop
         style="stop-opacity:1;stop-color:#f3f1f4"
         offset="1"
         id="stop2626" /></radialGradient><clipPath
       clipPathUnits="userSpaceOnUse"
       id="clipPath2638"><path
         d="m 1595.18,2194.56 c -30.84,0 -55.84,-24.99 -55.84,-55.85 0,-30.82 25,-55.82 55.84,-55.82 30.84,0 55.83,25 55.83,55.82 0,30.86 -24.99,55.85 -55.83,55.85 z M 1330.2,2079.82 c -111.35,0 -201.92,-90.58 -201.92,-201.93 0,-111.33 90.57,-201.91 201.92,-201.91 111.33,0 201.91,90.58 201.91,201.91 0,111.35 -90.58,201.93 -201.91,201.93 z m 0,-471.02 c -148.39,0 -269.1,120.72 -269.1,269.09 0,148.4 120.71,269.11 269.1,269.11 148.38,0 269.1,-120.71 269.1,-269.11 0,-148.37 -120.72,-269.09 -269.1,-269.09 z m -187.79,669.72 c -129.65,0 -235.129,-105.48 -235.129,-235.13 v -330.98 c 0,-129.65 105.479,-235.12 235.129,-235.12 h 375.58 c 129.64,0 235.12,105.47 235.12,235.12 v 330.98 c 0,129.65 -105.48,235.13 -235.12,235.13 z m 375.58,-868.42 h -375.58 c -166.695,0 -302.312,135.63 -302.312,302.31 v 330.98 c 0,166.69 135.617,302.31 302.312,302.31 h 375.58 c 166.68,0 302.3,-135.62 302.3,-302.31 v -330.98 c 0,-166.68 -135.62,-302.31 -302.3,-302.31 z"
         id="path2636" /></clipPath><linearGradient
       x1="0"
       y1="0"
       x2="1"
       y2="0"
       gradientUnits="userSpaceOnUse"
       gradientTransform="matrix(-1026.67,-1140,-1140,1026.67,1783.31,2381.03)"
       spreadMethod="pad"
       id="linearGradient2644"><stop
         style="stop-opacity:1;stop-color:#211e23"
         offset="0"
         id="stop2640" /><stop
         style="stop-opacity:1;stop-color:#3d3a42"
         offset="1"
         id="stop2642" /></linearGradient><clipPath
       clipPathUnits="userSpaceOnUse"
       id="clipPath2654"><path
         d="m 7261.83,1870.63 c 0,-382.81 -310.35,-693.14 -693.16,-693.14 -382.81,0 -693.15,310.33 -693.15,693.14 0,382.84 310.34,693.17 693.15,693.17 382.81,0 693.16,-310.33 693.16,-693.17 z"
         id="path2652" /></clipPath><linearGradient
       x1="0"
       y1="0"
       x2="1"
       y2="0"
       gradientUnits="userSpaceOnUse"
       gradientTransform="matrix(-880,-1300,-1300,880,6988.98,2491.54)"
       spreadMethod="pad"
       id="linearGradient2660"><stop
         style="stop-opacity:1;stop-color:#f3f1f4"
         offset="0"
         id="stop2656" /><stop
         style="stop-opacity:1;stop-color:#ffffff"
         offset="1"
         id="stop2658" /></linearGradient><clipPath
       clipPathUnits="userSpaceOnUse"
       id="clipPath2672"><path
         d="m 6979.44,2110.36 c -17.89,-4.95 -31.98,-4.17 -31.98,-4.17 l 0.58,3.4 c 16.66,13.35 58.69,54.27 64.24,73.41 2.4,8.28 -0.45,11.12 -0.47,11.4 l -53.68,-22.8 -44.92,-20.26 v 0 c -31,32.83 -77.93,53.73 -130.42,53.73 -93.38,0 -169.09,-66.14 -169.09,-147.77 0,-14.93 2.24,-42.16 6.93,-55.75 0,-4.27 0.17,4.29 0,0 -60.14,1.65 -137.21,26.31 -205.85,61.1 -135.4,68.59 -143.87,116.07 -143.87,116.07 -21.25,-22.57 -32.24,-97.34 -10.67,-155.97 13.79,-37.52 61.22,-71.21 61.22,-71.21 v 0 c 0,0 -21.2,-0.39 -43.41,7.14 -22.23,7.5 -30.63,14.95 -30.63,14.95 -13.2,-32.22 13.31,-89.76 59.11,-131.04 26.7,-24.08 75.47,-39.16 75.47,-39.16 l -76.19,-2.16 c -4.28,-74.05 155.31,-118.04 155.31,-118.04 v 0 c -46.76,-35.98 -101.04,-57.9 -159.23,-57.9 -30.15,0 -59.28,4.51 -86.93,12.78 76.86,-63.33 175.63,-107.06 283.05,-101.41 284.96,14.97 445.82,259.92 453.47,500.49 l 0.39,-0.49 c 0,0 13.34,6.66 41.88,35.21 28.54,28.54 46.3,61.95 46.3,61.95 0,0 -42.69,-18.56 -60.61,-23.5 z"
         id="path2670" /></clipPath><linearGradient
       x1="0"
       y1="0"
       x2="1"
       y2="0"
       gradientUnits="userSpaceOnUse"
       gradientTransform="matrix(-610,-880,-880,610,6886.53,2425.14)"
       spreadMethod="pad"
       id="linearGradient2678"><stop
         style="stop-opacity:1;stop-color:#211e23"
         offset="0"
         id="stop2674" /><stop
         style="stop-opacity:1;stop-color:#3d3a42"
         offset="1"
         id="stop2676" /></linearGradient><clipPath
       clipPathUnits="userSpaceOnUse"
       id="clipPath2690"><path
         d="m 4821.86,1188.68 c -120.99,0 -239.64,31.99 -344.75,92.77 l -269.3,-92.77 55.35,285.16 c -86.76,118.91 -132.5,258.79 -132.5,406.01 0,381.15 310.07,691.2 691.2,691.2 381.17,0 691.22,-310.05 691.22,-691.2 0,-381.11 -310.05,-691.17 -691.22,-691.17 z"
         id="path2688" /></clipPath><linearGradient
       x1="0"
       y1="0"
       x2="1"
       y2="0"
       gradientUnits="userSpaceOnUse"
       gradientTransform="matrix(-1080,-1550,-1550,1080,5338.02,2620.64)"
       spreadMethod="pad"
       id="linearGradient2696"><stop
         style="stop-opacity:1;stop-color:#f3f1f4"
         offset="0"
         id="stop2692" /><stop
         style="stop-opacity:1;stop-color:#ffffff"
         offset="1"
         id="stop2694" /></linearGradient><clipPath
       clipPathUnits="userSpaceOnUse"
       id="clipPath2706"><path
         d="m 4589.07,1944.83 c 13.22,-58.2 69.23,-122.16 132.31,-185.26 63.07,-63.07 181.44,-103.52 231.15,-103.52 49.72,0 82.78,34.88 94.1,46.2 11.32,11.3 16.85,44.77 16.85,58.43 0,13.68 -9.06,16.98 -9.06,16.98 0,0 -77.41,38.6 -95.27,46.75 -17.89,8.16 -28.65,-5.72 -28.65,-5.72 0,0 -33.55,-41.91 -39.7,-48.08 -6.19,-6.17 -15.9,-4.86 -15.9,-4.86 0,0 -67.87,25.23 -103.2,60.6 -35.4,35.35 -52.5,62.93 -63.53,77.91 -11.03,15.01 0,29.12 0,29.12 0,0 19.86,19.84 28.68,33.51 8.81,13.69 3.06,27.8 3.06,27.8 0,0 -33.5,82.06 -41.01,96.17 -7.49,14.11 -35.3,14.11 -56.91,11.45 -21.58,-2.63 -48.09,-48.95 -48.09,-48.95 -16.29,-23.98 -18.06,-50.28 -4.83,-108.53 z m 15.69,-382.05 13.61,-8.52 c 61.32,-38.44 131.7,-58.76 203.49,-58.76 211.97,0 384.39,172.42 384.39,384.37 0,211.95 -172.42,384.37 -384.39,384.37 -211.94,0 -384.36,-172.42 -384.36,-384.37 0,-86.23 28.24,-167.94 81.64,-236.27 l 9.44,-12.07 -19.76,-101.79 z m 217.1,-134.47 c -79.03,0 -156.56,20.92 -225.21,60.63 l -175.94,-60.63 36.15,186.31 c -56.66,77.68 -86.56,169.05 -86.56,265.25 0,249 202.57,451.56 451.56,451.56 249,0 451.57,-202.56 451.57,-451.56 0,-248.99 -202.57,-451.56 -451.57,-451.56 z"
         id="path2704" /></clipPath><linearGradient
       x1="0"
       y1="0"
       x2="1"
       y2="0"
       gradientUnits="userSpaceOnUse"
       gradientTransform="matrix(-800,-1040,-1040,800,5144.29,2299.02)"
       spreadMethod="pad"
       id="linearGradient2712"><stop
         style="stop-opacity:1;stop-color:#211e23"
         offset="0"
         id="stop2708" /><stop
         style="stop-opacity:1;stop-color:#3d3a42"
         offset="1"
         id="stop2710" /></linearGradient></defs><g
     id="layer1"><g
       id="g1"
       transform="matrix(5.3905431,0,0,5.3905431,-1351.655,-280.53389)"><path
         d="m 275.92133,101.69266 c -4.26826,0 -8.45397,-1.12889 -12.16202,-3.272724 l -9.5003,3.272724 1.95262,-10.059816 c -3.0607,-4.195234 -4.67431,-9.129537 -4.67431,-14.323484 0,-13.445421 10.93859,-24.384002 24.38401,-24.384002 13.44683,0 24.3847,10.938581 24.3847,24.384002 0,13.445067 -10.93787,24.3833 -24.3847,24.3833"
         style="fill:#17ad4b;fill-opacity:1;fill-rule:nonzero;stroke:none;stroke-width:0.0352778"
         id="path2496" /><path
         d="m 268.26252,88.495238 0.48013,0.300214 c 2.16323,1.356431 4.64608,2.073275 7.17868,2.073275 7.47783,0 13.56042,-6.082595 13.56042,-13.560073 0,-7.47642 -6.08259,-13.559367 -13.56042,-13.559367 -7.47678,0 -13.55937,6.082947 -13.55937,13.559367 0,3.042003 0.99624,5.924551 2.88008,8.335081 l 0.33302,0.425803 -0.69709,3.591631 z m 7.65881,4.743803 c -2.78801,0 -5.52309,-0.738011 -7.94491,-2.138891 l -6.20678,2.138891 1.2753,-6.572603 c -1.99884,-2.740731 -3.05365,-5.964061 -3.05365,-9.357784 0,-8.783814 7.14622,-15.929681 15.93004,-15.929681 8.78416,0 15.93038,7.145867 15.93038,15.929681 0,8.784167 -7.14622,15.930387 -15.93038,15.930387"
         style="fill:#ffffff;fill-opacity:1;fill-rule:nonzero;stroke:none;stroke-width:0.0352778"
         id="path2498" /><path
         d="m 267.8794,71.188312 c 0,0 0.93522,-1.633714 1.69651,-1.726847 0.76235,-0.09384 1.74343,-0.09384 2.00766,0.404283 0.26494,0.49777 1.44674,3.392664 1.44674,3.392664 0,0 0.20285,0.49777 -0.10795,0.98037 -0.31115,0.482247 -1.01176,1.182511 -1.01176,1.182511 0,0 -0.38912,0.497769 0,1.026936 0.38911,0.528814 0.99236,1.501422 2.24119,2.748492 1.24637,1.248481 3.64067,2.137833 3.64067,2.137833 0,0 0.34255,0.04657 0.56092,-0.171097 0.21695,-0.218016 1.40052,-1.696155 1.40052,-1.696155 0,0 0.37959,-0.490009 1.01071,-0.202142 0.63006,0.287867 3.36092,1.649589 3.36092,1.649589 0,0 0.31961,0.116417 0.31961,0.598664 0,0.482247 -0.19508,1.662642 -0.59443,2.061633 -0.39934,0.399345 -1.56562,1.629481 -3.31964,1.629481 -1.75365,0 -5.92949,-1.426986 -8.15446,-3.651603 -2.22532,-2.225675 -4.20123,-4.482395 -4.6676,-6.535914 -0.46672,-2.054225 -0.40428,-2.982737 0.17039,-3.828698"
         style="fill:#ffffff;fill-opacity:1;fill-rule:nonzero;stroke:none;stroke-width:0.0352778"
         id="path2500" /></g></g></svg>
